ISO-10303-21;
HEADER;
FILE_DESCRIPTION (( 'STEP AP203' ),
    '1' );
FILE_NAME ('Body.STEP',
    '2026-07-14T16:00:12',
    ( '' ),
    ( '' ),
    'SwSTEP 2.0',
    'SolidWorks 2026',
    '' );
FILE_SCHEMA (( 'CONFIG_CONTROL_DESIGN' ));
ENDSEC;

DATA;
#1 = CARTESIAN_POINT ( 'NONE',  ( 0.08500000000000000611, 0.1100000000000000561, 0.3650000000000001577 ) ) ;
#2 = LINE ( 'NONE', #295, #449 ) ;
#3 = VERTEX_POINT ( 'NONE', #626 ) ;
#4 = AXIS2_PLACEMENT_3D ( 'NONE', #1, #132, #779 ) ;
#5 = AXIS2_PLACEMENT_3D ( 'NONE', #81, #273, #204 ) ;
#6 = ORIENTED_EDGE ( 'NONE', *, *, #183, .F. ) ;
#7 = MECHANICAL_CONTEXT ( 'NONE', #422, 'mechanical' ) ;
#8 = CLOSED_SHELL ( 'NONE', ( #20, #402, #886, #829, #489, #302, #228, #239, #921, #869, #327, #381, #814, #802, #349, #792, #264, #134, #841, #716, #175, #147, #249, #322, #890, #776, #731, #213 ) ) ;
#9 = CARTESIAN_POINT ( 'NONE',  ( 0.4249999999999999889, 0.7569999999999998952, 0.4150000000000000355 ) ) ;
#10 = DIRECTION ( 'NONE',  ( -0.000000000000000000, 0.000000000000000000, -1.000000000000000000 ) ) ;
#11 = PRODUCT_DEFINITION ( 'UNKNOWN', '', #473, #730 ) ;
#12 = VERTEX_POINT ( 'NONE', #66 ) ;
#13 = PERSON_AND_ORGANIZATION_ROLE ( 'creator' ) ;
#14 = CARTESIAN_POINT ( 'NONE',  ( -0.4249999999999999889, 0.006999999999999895195, 0.4150000000000001465 ) ) ;
#15 = EDGE_LOOP ( 'NONE', ( #848, #717, #254, #243 ) ) ;
#16 = DIRECTION ( 'NONE',  ( 0.000000000000000000, -0.000000000000000000, -1.000000000000000000 ) ) ;
#17 = EDGE_CURVE ( 'NONE', #450, #3, #492, .T. ) ;
#18 = EDGE_LOOP ( 'NONE', ( #564, #79, #619, #836 ) ) ;
#19 = PERSON_AND_ORGANIZATION ( #25, #756 ) ;
#20 = ADVANCED_FACE ( 'NONE', ( #498 ), #70, .F. ) ;
#21 = DIRECTION ( 'NONE',  ( -1.000000000000000000, 0.000000000000000000, 0.000000000000000000 ) ) ;
#22 = ORIENTED_EDGE ( 'NONE', *, *, #56, .T. ) ;
#23 = CALENDAR_DATE ( 2026, 14, 7 ) ;
#24 = LINE ( 'NONE', #238, #333 ) ;
#25 = PERSON ( 'UNSPECIFIED', 'UNSPECIFIED', 'UNSPECIFIED', ('UNSPECIFIED'), ('UNSPECIFIED'), ('UNSPECIFIED') ) ;
#26 = ORIENTED_EDGE ( 'NONE', *, *, #574, .T. ) ;
#27 = DIRECTION ( 'NONE',  ( -1.000000000000000000, 0.000000000000000000, 0.000000000000000000 ) ) ;
#28 = VECTOR ( 'NONE', #403, 1.000000000000000000 ) ;
#29 = CARTESIAN_POINT ( 'NONE',  ( 0.2849999999999999756, 0.7000000000000000666, -0.4150000000000000355 ) ) ;
#30 = ORIENTED_EDGE ( 'NONE', *, *, #873, .F. ) ;
#31 = ORIENTED_EDGE ( 'NONE', *, *, #17, .T. ) ;
#32 = CIRCLE ( 'NONE', #124, 0.08999999999999998279 ) ;
#33 = DIRECTION ( 'NONE',  ( -0.000000000000000000, -0.000000000000000000, -1.000000000000000000 ) ) ;
#34 = EDGE_CURVE ( 'NONE', #262, #870, #290, .T. ) ;
#35 = ORIENTED_EDGE ( 'NONE', *, *, #875, .F. ) ;
#36 = PLANE ( 'NONE',  #725 ) ;
#37 = LINE ( 'NONE', #464, #294 ) ;
#38 = DIRECTION ( 'NONE',  ( -1.000000000000000000, -0.000000000000000000, -0.000000000000000000 ) ) ;
#39 = CARTESIAN_POINT ( 'NONE',  ( -0.2849999999999996980, 0.7250000000000000888, -0.4150000000000000355 ) ) ;
#40 = CARTESIAN_POINT ( 'NONE',  ( -0.1600000000000000311, 0.1100000000000000006, 0.3650000000000001577 ) ) ;
#41 = AXIS2_PLACEMENT_3D ( 'NONE', #352, #859, #558 ) ;
#42 = CC_DESIGN_PERSON_AND_ORGANIZATION_ASSIGNMENT ( #242, #299, ( #473 ) ) ;
#43 = DIRECTION ( 'NONE',  ( 0.000000000000000000, -7.401486830834378990E-17, -1.000000000000000000 ) ) ;
#44 = DIRECTION ( 'NONE',  ( 0.000000000000000000, -0.000000000000000000, -1.000000000000000000 ) ) ;
#45 = VECTOR ( 'NONE', #738, 1.000000000000000000 ) ;
#46 = AXIS2_PLACEMENT_3D ( 'NONE', #897, #330, #251 ) ;
#47 = EDGE_LOOP ( 'NONE', ( #55, #151, #622, #26 ) ) ;
#48 = CARTESIAN_POINT ( 'NONE',  ( -1.387778780781445676E-17, 0.1395803989154980607, 0.3650000000000001577 ) ) ;
#49 = LINE ( 'NONE', #266, #809 ) ;
#50 = DIRECTION ( 'NONE',  ( 1.000000000000000000, 0.000000000000000000, -0.000000000000000000 ) ) ;
#51 = EDGE_LOOP ( 'NONE', ( #752, #412, #71, #123 ) ) ;
#52 = ORIENTED_EDGE ( 'NONE', *, *, #95, .F. ) ;
#53 = CALENDAR_DATE ( 2026, 14, 7 ) ;
#54 = DIRECTION ( 'NONE',  ( 0.000000000000000000, 0.000000000000000000, 1.000000000000000000 ) ) ;
#55 = ORIENTED_EDGE ( 'NONE', *, *, #163, .F. ) ;
#56 = EDGE_CURVE ( 'NONE', #298, #345, #150, .T. ) ;
#57 = ORIENTED_EDGE ( 'NONE', *, *, #919, .F. ) ;
#58 = CARTESIAN_POINT ( 'NONE',  ( 0.4430000000000000049, -0.01799999999999999864, 0.4329999999999999960 ) ) ;
#59 = CARTESIAN_POINT ( 'NONE',  ( 0.2849999999999995870, 0.7249999999999999778, -0.4329999999999999960 ) ) ;
#60 = CARTESIAN_POINT ( 'NONE',  ( 0.4430000000000000049, -0.01799999999999999864, -0.4329999999999999960 ) ) ;
#61 = EDGE_CURVE ( 'NONE', #766, #863, #708, .T. ) ;
#62 = EDGE_CURVE ( 'NONE', #3, #582, #683, .T. ) ;
#63 = ORIENTED_EDGE ( 'NONE', *, *, #309, .T. ) ;
#64 = CARTESIAN_POINT ( 'NONE',  ( 0.4249999999999999889, 0.7569999999999997842, -0.4150000000000000355 ) ) ;
#65 = DIRECTION ( 'NONE',  ( 0.000000000000000000, 1.000000000000000000, 0.000000000000000000 ) ) ;
#66 = CARTESIAN_POINT ( 'NONE',  ( 0.000000000000000000, 0.08041960108450199596, 0.4150000000000001465 ) ) ;
#67 = EDGE_LOOP ( 'NONE', ( #804, #519, #427, #35 ) ) ;
#68 = PERSON_AND_ORGANIZATION ( #25, #756 ) ;
#69 = CARTESIAN_POINT ( 'NONE',  ( 0.2999999999999996558, 0.7249999999999999778, -0.4329999999999999960 ) ) ;
#70 = CYLINDRICAL_SURFACE ( 'NONE', #197, 0.07500000000000002498 ) ;
#71 = ORIENTED_EDGE ( 'NONE', *, *, #389, .F. ) ;
#72 = FACE_OUTER_BOUND ( 'NONE', #852, .T. ) ;
#73 = CIRCLE ( 'NONE', #537, 0.01499999999999973577 ) ;
#74 = PLANE ( 'NONE',  #441 ) ;
#75 = EDGE_CURVE ( 'NONE', #459, #383, #862, .T. ) ;
#76 = CARTESIAN_POINT ( 'NONE',  ( -0.2849999999999996980, 0.7400000000000002132, -0.1450000000000002953 ) ) ;
#77 = AXIS2_PLACEMENT_3D ( 'NONE', #909, #914, #565 ) ;
#78 = AXIS2_PLACEMENT_3D ( 'NONE', #451, #800, #442 ) ;
#79 = ORIENTED_EDGE ( 'NONE', *, *, #62, .F. ) ;
#80 = CARTESIAN_POINT ( 'NONE',  ( 0.2999999999999996558, 0.7149999999999997469, -0.4329999999999999960 ) ) ;
#81 = CARTESIAN_POINT ( 'NONE',  ( 0.08500000000000000611, 0.1100000000000000006, 0.3650000000000001577 ) ) ;
#82 = VECTOR ( 'NONE', #324, 1.000000000000000000 ) ;
#83 = ORIENTED_EDGE ( 'NONE', *, *, #297, .T. ) ;
#84 = DIRECTION ( 'NONE',  ( -1.000000000000000000, 3.895519384649677279E-16, 0.000000000000000000 ) ) ;
#85 = COORDINATED_UNIVERSAL_TIME_OFFSET ( 4, 0, .AHEAD. ) ;
#86 = CARTESIAN_POINT ( 'NONE',  ( 0.4430000000000000049, 0.7820000000000000284, 0.4329999999999999960 ) ) ;
#87 = EDGE_CURVE ( 'NONE', #344, #911, #502, .T. ) ;
#88 = ORIENTED_EDGE ( 'NONE', *, *, #579, .T. ) ;
#89 = DATE_AND_TIME ( #723, #332 ) ;
#90 = VECTOR ( 'NONE', #818, 1.000000000000000000 ) ;
#91 = CARTESIAN_POINT ( 'NONE',  ( 0.08500000000000000611, 0.1100000000000000561, 0.3650000000000001577 ) ) ;
#92 = EDGE_CURVE ( 'NONE', #218, #345, #291, .T. ) ;
#93 = AXIS2_PLACEMENT_3D ( 'NONE', #461, #525, #529 ) ;
#94 = ORIENTED_EDGE ( 'NONE', *, *, #574, .F. ) ;
#95 = EDGE_CURVE ( 'NONE', #450, #12, #348, .T. ) ;
#96 = DATE_AND_TIME ( #53, #315 ) ;
#97 = DIRECTION ( 'NONE',  ( 1.000000000000000000, 0.000000000000000000, 0.000000000000000000 ) ) ;
#98 = VERTEX_POINT ( 'NONE', #421 ) ;
#99 = PERSON_AND_ORGANIZATION ( #25, #756 ) ;
#100 = CYLINDRICAL_SURFACE ( 'NONE', #436, 0.07500000000000002498 ) ;
#101 = APPROVAL_PERSON_ORGANIZATION ( #19, #435, #504 ) ;
#102 = CARTESIAN_POINT ( 'NONE',  ( 0.4430000000000000049, -0.01799999999999999864, 0.4329999999999999960 ) ) ;
#103 = ORIENTED_EDGE ( 'NONE', *, *, #371, .F. ) ;
#104 = DIRECTION ( 'NONE',  ( 0.000000000000000000, -1.000000000000000000, 0.000000000000000000 ) ) ;
#105 = EDGE_CURVE ( 'NONE', #510, #298, #516, .T. ) ;
#106 = ORIENTED_EDGE ( 'NONE', *, *, #690, .T. ) ;
#107 = FACE_OUTER_BOUND ( 'NONE', #354, .T. ) ;
#108 = FACE_OUTER_BOUND ( 'NONE', #687, .T. ) ;
#109 = CARTESIAN_POINT ( 'NONE',  ( 0.08500000000000000611, 0.1100000000000000561, 0.4150000000000001465 ) ) ;
#110 = DIRECTION ( 'NONE',  ( 0.000000000000000000, 1.000000000000000000, -7.401486830834378990E-17 ) ) ;
#111 = LINE ( 'NONE', #127, #718 ) ;
#112 = FACE_BOUND ( 'NONE', #874, .T. ) ;
#113 = EDGE_CURVE ( 'NONE', #722, #125, #846, .T. ) ;
#114 = CARTESIAN_POINT ( 'NONE',  ( 0.2849999999999999756, 0.7149999999999997469, -0.1450000000000002953 ) ) ;
#115 = CARTESIAN_POINT ( 'NONE',  ( -0.4249999999999999889, 0.006999999999999895195, -0.4149999999999999800 ) ) ;
#116 = CIRCLE ( 'NONE', #512, 0.08999999999999999667 ) ;
#117 = ORIENTED_EDGE ( 'NONE', *, *, #913, .T. ) ;
#118 = VECTOR ( 'NONE', #281, 1.000000000000000000 ) ;
#119 = FACE_OUTER_BOUND ( 'NONE', #146, .T. ) ;
#120 = CARTESIAN_POINT ( 'NONE',  ( -0.009999999999999995004, 0.1100000000000000144, 0.3650000000000001577 ) ) ;
#121 = VECTOR ( 'NONE', #793, 1.000000000000000000 ) ;
#122 = DIRECTION ( 'NONE',  ( 1.387778780781445922E-16, -1.000000000000000000, 0.000000000000000000 ) ) ;
#123 = ORIENTED_EDGE ( 'NONE', *, *, #746, .T. ) ;
#124 = AXIS2_PLACEMENT_3D ( 'NONE', #91, #797, #176 ) ;
#125 = VERTEX_POINT ( 'NONE', #775 ) ;
#126 = CARTESIAN_POINT ( 'NONE',  ( 0.2849999999999995870, 0.7399999999999999911, -0.1450000000000002953 ) ) ;
#127 = CARTESIAN_POINT ( 'NONE',  ( 0.4249999999999999889, 0.7569999999999997842, -0.4150000000000000355 ) ) ;
#128 = CARTESIAN_POINT ( 'NONE',  ( 0.2849999999999995870, 0.7399999999999999911, -0.4329999999999999960 ) ) ;
#129 = EDGE_CURVE ( 'NONE', #424, #911, #141, .T. ) ;
#130 = VERTEX_POINT ( 'NONE', #807 ) ;
#131 = ORIENTED_EDGE ( 'NONE', *, *, #309, .F. ) ;
#132 = DIRECTION ( 'NONE',  ( -0.000000000000000000, -0.000000000000000000, 1.000000000000000000 ) ) ;
#133 = CARTESIAN_POINT ( 'NONE',  ( -0.4249999999999999889, 0.006999999999999895195, 0.4150000000000001465 ) ) ;
#134 = ADVANCED_FACE ( 'NONE', ( #305, #225 ), #872, .F. ) ;
#135 = CARTESIAN_POINT ( 'NONE',  ( 0.08500000000000000611, 0.1100000000000000006, 0.4330000000000001625 ) ) ;
#136 = VECTOR ( 'NONE', #265, 1.000000000000000000 ) ;
#137 = DIRECTION ( 'NONE',  ( 0.000000000000000000, 0.000000000000000000, -1.000000000000000000 ) ) ;
#138 = ORIENTED_EDGE ( 'NONE', *, *, #248, .T. ) ;
#139 = DIRECTION ( 'NONE',  ( 0.000000000000000000, 1.000000000000000000, 0.000000000000000000 ) ) ;
#140 = CARTESIAN_POINT ( 'NONE',  ( -0.2849999999999996980, 0.7400000000000002132, -0.4329999999999999960 ) ) ;
#141 = LINE ( 'NONE', #699, #588 ) ;
#142 = ORIENTED_EDGE ( 'NONE', *, *, #446, .T. ) ;
#143 = DIRECTION ( 'NONE',  ( 0.000000000000000000, 1.000000000000000000, 0.000000000000000000 ) ) ;
#144 = FACE_OUTER_BOUND ( 'NONE', #506, .T. ) ;
#145 = VERTEX_POINT ( 'NONE', #233 ) ;
#146 = EDGE_LOOP ( 'NONE', ( #878, #831, #6, #691 ) ) ;
#147 = ADVANCED_FACE ( 'NONE', ( #300 ), #384, .T. ) ;
#148 = CARTESIAN_POINT ( 'NONE',  ( -0.1600000000000000311, 0.1100000000000000006, 0.3650000000000001577 ) ) ;
#149 = CARTESIAN_POINT ( 'NONE',  ( 0.1749999999999999889, 0.1100000000000000561, 0.3650000000000001577 ) ) ;
#150 = LINE ( 'NONE', #430, #452 ) ;
#151 = ORIENTED_EDGE ( 'NONE', *, *, #446, .F. ) ;
#152 = DIRECTION ( 'NONE',  ( 1.000000000000000000, 0.000000000000000000, 0.000000000000000000 ) ) ;
#153 = ORIENTED_EDGE ( 'NONE', *, *, #599, .T. ) ;
#154 = AXIS2_PLACEMENT_3D ( 'NONE', #695, #10, #715 ) ;
#155 = ORIENTED_EDGE ( 'NONE', *, *, #898, .T. ) ;
#156 = DIRECTION ( 'NONE',  ( 3.895519384649677279E-16, 1.000000000000000000, -0.000000000000000000 ) ) ;
#157 = SECURITY_CLASSIFICATION_LEVEL ( 'unclassified' ) ;
#158 = DIRECTION ( 'NONE',  ( -1.000000000000000000, -1.387778780781445922E-16, 0.000000000000000000 ) ) ;
#159 = EDGE_CURVE ( 'NONE', #766, #541, #455, .T. ) ;
#160 = VERTEX_POINT ( 'NONE', #720 ) ;
#161 = CC_DESIGN_APPROVAL ( #435, ( #288 ) ) ;
#162 = LINE ( 'NONE', #172, #121 ) ;
#163 = EDGE_CURVE ( 'NONE', #688, #786, #511, .T. ) ;
#164 = CARTESIAN_POINT ( 'NONE',  ( 0.2999999999999996558, 0.7569999999999997842, -0.4150000000000000355 ) ) ;
#165 = EDGE_LOOP ( 'NONE', ( #733, #782, #644, #553 ) ) ;
#166 = CIRCLE ( 'NONE', #192, 0.07500000000000002498 ) ;
#167 = DIRECTION ( 'NONE',  ( 1.000000000000000000, -3.895519384649677279E-16, 2.883263542474463119E-32 ) ) ;
#168 = AXIS2_PLACEMENT_3D ( 'NONE', #697, #482, #635 ) ;
#169 = CIRCLE ( 'NONE', #634, 0.07500000000000002498 ) ;
#170 = VERTEX_POINT ( 'NONE', #657 ) ;
#171 = VECTOR ( 'NONE', #122, 1.000000000000000000 ) ;
#172 = CARTESIAN_POINT ( 'NONE',  ( 0.4249999999999999889, 0.7569999999999997842, -0.4150000000000000355 ) ) ;
#173 = AXIS2_PLACEMENT_3D ( 'NONE', #410, #754, #44 ) ;
#174 = ORIENTED_EDGE ( 'NONE', *, *, #248, .F. ) ;
#175 = ADVANCED_FACE ( 'NONE', ( #654 ), #876, .T. ) ;
#176 = DIRECTION ( 'NONE',  ( 1.000000000000000000, 0.000000000000000000, 0.000000000000000000 ) ) ;
#177 = EDGE_LOOP ( 'NONE', ( #663, #361, #355, #142 ) ) ;
#178 = CARTESIAN_POINT ( 'NONE',  ( -0.2999999999999997113, 0.7149999999999997469, -0.1450000000000002953 ) ) ;
#179 = DIRECTION ( 'NONE',  ( -1.000000000000000000, -5.551115123125592587E-15, 0.000000000000000000 ) ) ;
#180 = DIRECTION ( 'NONE',  ( 0.000000000000000000, 0.000000000000000000, 1.000000000000000000 ) ) ;
#181 = EDGE_CURVE ( 'NONE', #344, #301, #24, .T. ) ;
#182 = FACE_OUTER_BOUND ( 'NONE', #481, .T. ) ;
#183 = EDGE_CURVE ( 'NONE', #870, #340, #162, .T. ) ;
#184 = DIRECTION ( 'NONE',  ( -0.000000000000000000, -0.000000000000000000, -1.000000000000000000 ) ) ;
#185 = CYLINDRICAL_SURFACE ( 'NONE', #577, 0.01500000000000012434 ) ;
#186 = EDGE_CURVE ( 'NONE', #627, #401, #169, .T. ) ;
#187 = DIRECTION ( 'NONE',  ( 0.000000000000000000, 1.000000000000000000, 0.000000000000000000 ) ) ;
#188 = DIRECTION ( 'NONE',  ( -0.000000000000000000, -0.000000000000000000, -1.000000000000000000 ) ) ;
#189 = CARTESIAN_POINT ( 'NONE',  ( 0.2999999999999996558, 0.7249999999999999778, -0.1450000000000002953 ) ) ;
#190 = ADVANCED_BREP_SHAPE_REPRESENTATION ( 'Body', ( #276, #168 ), #880 ) ;
#191 = ORIENTED_EDGE ( 'NONE', *, *, #62, .T. ) ;
#192 = AXIS2_PLACEMENT_3D ( 'NONE', #851, #353, #773 ) ;
#193 = ORIENTED_EDGE ( 'NONE', *, *, #768, .T. ) ;
#194 = AXIS2_PLACEMENT_3D ( 'NONE', #362, #271, #693 ) ;
#195 = CARTESIAN_POINT ( 'NONE',  ( 0.4430000000000000049, 0.7820000000000000284, -0.4329999999999999960 ) ) ;
#196 = DIRECTION ( 'NONE',  ( -0.000000000000000000, 0.000000000000000000, -1.000000000000000000 ) ) ;
#197 = AXIS2_PLACEMENT_3D ( 'NONE', #632, #922, #359 ) ;
#198 = FACE_BOUND ( 'NONE', #834, .T. ) ;
#199 = ORIENTED_EDGE ( 'NONE', *, *, #578, .F. ) ;
#200 = VECTOR ( 'NONE', #180, 1.000000000000000000 ) ;
#201 = ORIENTED_EDGE ( 'NONE', *, *, #351, .T. ) ;
#202 = EDGE_CURVE ( 'NONE', #842, #170, #567, .T. ) ;
#203 = DIRECTION ( 'NONE',  ( 0.000000000000000000, 0.000000000000000000, -1.000000000000000000 ) ) ;
#204 = DIRECTION ( 'NONE',  ( -1.000000000000000000, 0.000000000000000000, 0.000000000000000000 ) ) ;
#205 = ORIENTED_EDGE ( 'NONE', *, *, #743, .T. ) ;
#206 =( LENGTH_UNIT ( ) NAMED_UNIT ( * ) SI_UNIT ( $, .METRE. ) );
#207 = LINE ( 'NONE', #220, #709 ) ;
#208 = CARTESIAN_POINT ( 'NONE',  ( 0.4249999999999999889, 0.7000000000000000666, -0.4150000000000000355 ) ) ;
#209 = VECTOR ( 'NONE', #428, 1.000000000000000000 ) ;
#210 = ORIENTED_EDGE ( 'NONE', *, *, #163, .T. ) ;
#211 = DIRECTION ( 'NONE',  ( -1.000000000000000000, 0.000000000000000000, 0.000000000000000000 ) ) ;
#212 = CARTESIAN_POINT ( 'NONE',  ( -0.08500000000000000611, 0.1100000000000000561, 0.3650000000000001577 ) ) ;
#213 = ADVANCED_FACE ( 'NONE', ( #735 ), #100, .F. ) ;
#214 = VERTEX_POINT ( 'NONE', #571 ) ;
#215 = APPROVAL_STATUS ( 'not_yet_approved' ) ;
#216 = CARTESIAN_POINT ( 'NONE',  ( -0.4430000000000001159, 0.7819999999999999174, -0.4329999999999999960 ) ) ;
#217 = ORIENTED_EDGE ( 'NONE', *, *, #642, .T. ) ;
#218 = VERTEX_POINT ( 'NONE', #866 ) ;
#219 = APPROVAL_ROLE ( '' ) ;
#220 = CARTESIAN_POINT ( 'NONE',  ( -0.4430000000000000049, -0.01799999999999999864, -0.4329999999999999960 ) ) ;
#221 = DIRECTION ( 'NONE',  ( -5.551115123125592587E-15, 1.000000000000000000, -7.401486830834378990E-17 ) ) ;
#222 = ORIENTED_EDGE ( 'NONE', *, *, #542, .T. ) ;
#223 = DATE_AND_TIME ( #645, #861 ) ;
#224 = EDGE_CURVE ( 'NONE', #582, #438, #575, .T. ) ;
#225 = FACE_BOUND ( 'NONE', #486, .T. ) ;
#226 = ORIENTED_EDGE ( 'NONE', *, *, #642, .F. ) ;
#227 = EDGE_CURVE ( 'NONE', #582, #450, #32, .T. ) ;
#228 = ADVANCED_FACE ( 'NONE', ( #587 ), #883, .F. ) ;
#229 = DIRECTION ( 'NONE',  ( 1.387778780781445922E-16, -1.000000000000000000, 0.000000000000000000 ) ) ;
#230 = AXIS2_PLACEMENT_3D ( 'NONE', #439, #156, #84 ) ;
#231 = EDGE_LOOP ( 'NONE', ( #380, #311, #457, #544 ) ) ;
#232 = APPROVAL_STATUS ( 'not_yet_approved' ) ;
#233 = CARTESIAN_POINT ( 'NONE',  ( 0.2999999999999996558, 0.7149999999999997469, -0.4150000000000000355 ) ) ;
#234 = PLANE ( 'NONE',  #360 ) ;
#235 = ORIENTED_EDGE ( 'NONE', *, *, #393, .F. ) ;
#236 = DATE_TIME_ROLE ( 'creation_date' ) ;
#237 = CIRCLE ( 'NONE', #431, 0.01499999999999968026 ) ;
#238 = CARTESIAN_POINT ( 'NONE',  ( 0.4430000000000000049, -0.01799999999999999864, -0.4329999999999999960 ) ) ;
#239 = ADVANCED_FACE ( 'NONE', ( #518 ), #445, .T. ) ;
#240 = VECTOR ( 'NONE', #437, 1.000000000000000000 ) ;
#241 = EDGE_LOOP ( 'NONE', ( #799, #366 ) ) ;
#242 = PERSON_AND_ORGANIZATION ( #25, #756 ) ;
#243 = ORIENTED_EDGE ( 'NONE', *, *, #75, .F. ) ;
#244 = CARTESIAN_POINT ( 'NONE',  ( 0.4249999999999999889, 0.006999999999999895195, -0.4149999999999999800 ) ) ;
#245 = ORIENTED_EDGE ( 'NONE', *, *, #774, .F. ) ;
#246 = DIRECTION ( 'NONE',  ( -1.000000000000000000, 0.000000000000000000, 0.000000000000000000 ) ) ;
#247 = DIRECTION ( 'NONE',  ( 1.000000000000000000, 0.000000000000000000, 0.000000000000000000 ) ) ;
#248 = EDGE_CURVE ( 'NONE', #696, #317, #458, .T. ) ;
#249 = ADVANCED_FACE ( 'NONE', ( #686, #198, #397 ), #675, .T. ) ;
#250 = FACE_BOUND ( 'NONE', #858, .T. ) ;
#251 = DIRECTION ( 'NONE',  ( 1.000000000000000000, 0.000000000000000000, -0.000000000000000000 ) ) ;
#252 = AXIS2_PLACEMENT_3D ( 'NONE', #178, #179, #673 ) ;
#253 = VECTOR ( 'NONE', #827, 1.000000000000000000 ) ;
#254 = ORIENTED_EDGE ( 'NONE', *, *, #864, .F. ) ;
#255 = CARTESIAN_POINT ( 'NONE',  ( -0.2999999999999997669, 0.7250000000000000888, -0.1450000000000002953 ) ) ;
#256 = PLANE ( 'NONE',  #896 ) ;
#257 = EDGE_CURVE ( 'NONE', #301, #923, #604, .T. ) ;
#258 = AXIS2_PLACEMENT_3D ( 'NONE', #610, #606, #674 ) ;
#259 = LINE ( 'NONE', #48, #552 ) ;
#260 = CARTESIAN_POINT ( 'NONE',  ( 0.009999999999999981126, 0.1100000000000000006, 0.3650000000000001577 ) ) ;
#261 = CARTESIAN_POINT ( 'NONE',  ( 0.4249999999999999889, 0.006999999999999895195, 0.4150000000000001465 ) ) ;
#262 = VERTEX_POINT ( 'NONE', #679 ) ;
#263 = ORIENTED_EDGE ( 'NONE', *, *, #326, .T. ) ;
#264 = ADVANCED_FACE ( 'NONE', ( #319 ), #256, .F. ) ;
#265 = DIRECTION ( 'NONE',  ( -0.000000000000000000, -0.000000000000000000, -1.000000000000000000 ) ) ;
#266 = CARTESIAN_POINT ( 'NONE',  ( -0.2849999999999999756, 0.7000000000000000666, -0.1450000000000002953 ) ) ;
#267 = DIRECTION ( 'NONE',  ( -0.000000000000000000, -0.000000000000000000, 1.000000000000000000 ) ) ;
#268 = ORIENTED_EDGE ( 'NONE', *, *, #87, .T. ) ;
#269 = AXIS2_PLACEMENT_3D ( 'NONE', #195, #468, #391 ) ;
#270 = ORIENTED_EDGE ( 'NONE', *, *, #297, .F. ) ;
#271 = DIRECTION ( 'NONE',  ( -0.000000000000000000, -0.000000000000000000, -1.000000000000000000 ) ) ;
#272 = DIRECTION ( 'NONE',  ( -0.000000000000000000, 0.000000000000000000, -1.000000000000000000 ) ) ;
#273 = DIRECTION ( 'NONE',  ( -0.000000000000000000, -0.000000000000000000, -1.000000000000000000 ) ) ;
#274 = AXIS2_PLACEMENT_3D ( 'NONE', #536, #615, #822 ) ;
#275 = EDGE_LOOP ( 'NONE', ( #210, #83, #385, #337 ) ) ;
#276 = MANIFOLD_SOLID_BREP ( 'Hole1', #8 ) ;
#277 = LINE ( 'NONE', #148, #209 ) ;
#278 = CARTESIAN_POINT ( 'NONE',  ( 0.009999999999999981126, 0.1100000000000000006, 0.4330000000000001625 ) ) ;
#279 = DIRECTION ( 'NONE',  ( -0.000000000000000000, -0.000000000000000000, -1.000000000000000000 ) ) ;
#280 = EDGE_LOOP ( 'NONE', ( #491, #217, #245, #418 ) ) ;
#281 = DIRECTION ( 'NONE',  ( -0.000000000000000000, -0.000000000000000000, -1.000000000000000000 ) ) ;
#282 = CARTESIAN_POINT ( 'NONE',  ( 0.08500000000000000611, 0.1100000000000000006, 0.3650000000000001577 ) ) ;
#283 = EDGE_CURVE ( 'NONE', #656, #503, #474, .T. ) ;
#284 = VERTEX_POINT ( 'NONE', #128 ) ;
#285 = CIRCLE ( 'NONE', #584, 0.07500000000000002498 ) ;
#286 = VERTEX_POINT ( 'NONE', #607 ) ;
#287 = CARTESIAN_POINT ( 'NONE',  ( 0.2849999999999999756, 0.7000000000000000666, -0.1450000000000002953 ) ) ;
#288 = SECURITY_CLASSIFICATION ( '', '', #157 ) ;
#289 = DIRECTION ( 'NONE',  ( -1.000000000000000000, 0.000000000000000000, 0.000000000000000000 ) ) ;
#290 = LINE ( 'NONE', #560, #777 ) ;
#291 = CIRCLE ( 'NONE', #5, 0.07500000000000002498 ) ;
#292 = ORIENTED_EDGE ( 'NONE', *, *, #257, .F. ) ;
#293 = PLANE ( 'NONE',  #230 ) ;
#294 = VECTOR ( 'NONE', #900, 1.000000000000000000 ) ;
#295 = CARTESIAN_POINT ( 'NONE',  ( 0.2849999999999999756, 0.7000000000000000666, -0.4329999999999999960 ) ) ;
#296 = ORIENTED_EDGE ( 'NONE', *, *, #761, .F. ) ;
#297 = EDGE_CURVE ( 'NONE', #786, #424, #598, .T. ) ;
#298 = VERTEX_POINT ( 'NONE', #478 ) ;
#299 = PERSON_AND_ORGANIZATION_ROLE ( 'creator' ) ;
#300 = FACE_OUTER_BOUND ( 'NONE', #623, .T. ) ;
#301 = VERTEX_POINT ( 'NONE', #823 ) ;
#302 = ADVANCED_FACE ( 'NONE', ( #112, #182 ), #901, .F. ) ;
#303 = CARTESIAN_POINT ( 'NONE',  ( 0.08500000000000000611, 0.1100000000000000006, 0.3650000000000001577 ) ) ;
#304 = EDGE_LOOP ( 'NONE', ( #103, #499, #174, #235 ) ) ;
#305 = FACE_OUTER_BOUND ( 'NONE', #736, .T. ) ;
#306 = ORIENTED_EDGE ( 'NONE', *, *, #447, .F. ) ;
#307 = APPROVAL_DATE_TIME ( #444, #435 ) ;
#308 = CARTESIAN_POINT ( 'NONE',  ( -0.08500000000000000611, 0.1100000000000000006, 0.3650000000000001577 ) ) ;
#309 = EDGE_CURVE ( 'NONE', #438, #12, #405, .T. ) ;
#310 = DIRECTION ( 'NONE',  ( 1.000000000000000000, 0.000000000000000000, 0.000000000000000000 ) ) ;
#311 = ORIENTED_EDGE ( 'NONE', *, *, #555, .T. ) ;
#312 = SHAPE_DEFINITION_REPRESENTATION ( #811, #190 ) ;
#313 = AXIS2_PLACEMENT_3D ( 'NONE', #750, #759, #539 ) ;
#314 = CARTESIAN_POINT ( 'NONE',  ( 0.1749999999999999889, 0.1100000000000000561, 0.3650000000000001577 ) ) ;
#315 = LOCAL_TIME ( 20, 0, 12.00000000000000000, #496 ) ;
#316 = VECTOR ( 'NONE', #515, 1.000000000000000000 ) ;
#317 = VERTEX_POINT ( 'NONE', #611 ) ;
#318 = CARTESIAN_POINT ( 'NONE',  ( -0.2849999999999999756, 0.7000000000000000666, -0.4329999999999999960 ) ) ;
#319 = FACE_OUTER_BOUND ( 'NONE', #280, .T. ) ;
#320 = VECTOR ( 'NONE', #414, 1.000000000000000000 ) ;
#321 = ORIENTED_EDGE ( 'NONE', *, *, #186, .F. ) ;
#322 = ADVANCED_FACE ( 'NONE', ( #905 ), #594, .T. ) ;
#323 = CARTESIAN_POINT ( 'NONE',  ( -0.4430000000000001159, 0.7819999999999999174, 0.4329999999999999960 ) ) ;
#324 = DIRECTION ( 'NONE',  ( -0.000000000000000000, -0.000000000000000000, -1.000000000000000000 ) ) ;
#325 = LOCAL_TIME ( 20, 0, 12.00000000000000000, #573 ) ;
#326 = EDGE_CURVE ( 'NONE', #595, #696, #392, .T. ) ;
#327 = ADVANCED_FACE ( 'NONE', ( #72 ), #293, .F. ) ;
#328 = PLANE ( 'NONE',  #269 ) ;
#329 = CARTESIAN_POINT ( 'NONE',  ( -0.2999999999999997669, 0.7250000000000000888, -0.4150000000000000355 ) ) ;
#330 = DIRECTION ( 'NONE',  ( 0.000000000000000000, 0.000000000000000000, 1.000000000000000000 ) ) ;
#331 = CIRCLE ( 'NONE', #387, 0.07500000000000002498 ) ;
#332 = LOCAL_TIME ( 20, 0, 12.00000000000000000, #713 ) ;
#333 = VECTOR ( 'NONE', #724, 1.000000000000000000 ) ;
#334 = FACE_BOUND ( 'NONE', #641, .T. ) ;
#335 = CYLINDRICAL_SURFACE ( 'NONE', #258, 0.07500000000000002498 ) ;
#336 = DIRECTION ( 'NONE',  ( -0.000000000000000000, 0.000000000000000000, -1.000000000000000000 ) ) ;
#337 = ORIENTED_EDGE ( 'NONE', *, *, #721, .T. ) ;
#338 = CARTESIAN_POINT ( 'NONE',  ( -0.2849999999999996980, 0.7400000000000002132, -0.4329999999999999960 ) ) ;
#339 = DIRECTION ( 'NONE',  ( 0.000000000000000000, 0.000000000000000000, 1.000000000000000000 ) ) ;
#340 = VERTEX_POINT ( 'NONE', #569 ) ;
#341 = EDGE_LOOP ( 'NONE', ( #908, #903, #667, #432 ) ) ;
#342 = DIRECTION ( 'NONE',  ( 0.000000000000000000, -7.401486830834378990E-17, -1.000000000000000000 ) ) ;
#343 = LINE ( 'NONE', #9, #320 ) ;
#344 = VERTEX_POINT ( 'NONE', #373 ) ;
#345 = VERTEX_POINT ( 'NONE', #910 ) ;
#346 = PERSON_AND_ORGANIZATION ( #25, #756 ) ;
#347 = DIRECTION ( 'NONE',  ( 1.387778780781445922E-16, -1.000000000000000000, 0.000000000000000000 ) ) ;
#348 = LINE ( 'NONE', #485, #806 ) ;
#349 = ADVANCED_FACE ( 'NONE', ( #469 ), #670, .F. ) ;
#350 = ORIENTED_EDGE ( 'NONE', *, *, #649, .T. ) ;
#351 = EDGE_CURVE ( 'NONE', #160, #757, #765, .T. ) ;
#352 = CARTESIAN_POINT ( 'NONE',  ( -0.4249999999999999889, 0.000000000000000000, 0.000000000000000000 ) ) ;
#353 = DIRECTION ( 'NONE',  ( -0.000000000000000000, -0.000000000000000000, -1.000000000000000000 ) ) ;
#354 = EDGE_LOOP ( 'NONE', ( #377, #550, #700, #795 ) ) ;
#355 = ORIENTED_EDGE ( 'NONE', *, *, #181, .T. ) ;
#356 = EDGE_CURVE ( 'NONE', #160, #627, #826, .T. ) ;
#357 = APPLICATION_PROTOCOL_DEFINITION ( 'international standard', 'config_control_design', 1994, #480 ) ;
#358 = DIRECTION ( 'NONE',  ( -1.000000000000000000, 0.000000000000000000, 0.000000000000000000 ) ) ;
#359 = DIRECTION ( 'NONE',  ( -1.000000000000000000, 0.000000000000000000, 0.000000000000000000 ) ) ;
#360 = AXIS2_PLACEMENT_3D ( 'NONE', #803, #310, #456 ) ;
#361 = ORIENTED_EDGE ( 'NONE', *, *, #87, .F. ) ;
#362 = CARTESIAN_POINT ( 'NONE',  ( -0.08500000000000000611, 0.1100000000000000006, 0.4330000000000001625 ) ) ;
#363 = APPROVAL_PERSON_ORGANIZATION ( #346, #658, #219 ) ;
#364 = DIRECTION ( 'NONE',  ( 0.000000000000000000, 0.000000000000000000, 1.000000000000000000 ) ) ;
#365 = VECTOR ( 'NONE', #637, 1.000000000000000000 ) ;
#366 = ORIENTED_EDGE ( 'NONE', *, *, #546, .T. ) ;
#367 = ORIENTED_EDGE ( 'NONE', *, *, #92, .F. ) ;
#368 = VECTOR ( 'NONE', #339, 1.000000000000000000 ) ;
#369 = DIRECTION ( 'NONE',  ( 0.000000000000000000, -7.401486830834378990E-17, -1.000000000000000000 ) ) ;
#370 = CARTESIAN_POINT ( 'NONE',  ( -0.2999999999999998779, 0.7569999999999957874, -0.4150000000000000355 ) ) ;
#371 = EDGE_CURVE ( 'NONE', #855, #214, #816, .T. ) ;
#372 = EDGE_LOOP ( 'NONE', ( #106, #711, #633, #479 ) ) ;
#373 = CARTESIAN_POINT ( 'NONE',  ( 0.4430000000000000049, -0.01799999999999999864, -0.4329999999999999960 ) ) ;
#374 = APPROVAL_STATUS ( 'not_yet_approved' ) ;
#375 = DIRECTION ( 'NONE',  ( 0.000000000000000000, -1.000000000000000000, 0.000000000000000000 ) ) ;
#376 = VECTOR ( 'NONE', #887, 1.000000000000000000 ) ;
#377 = ORIENTED_EDGE ( 'NONE', *, *, #394, .T. ) ;
#378 = DATE_TIME_ROLE ( 'classification_date' ) ;
#379 = DIRECTION ( 'NONE',  ( 0.000000000000000000, -0.000000000000000000, -1.000000000000000000 ) ) ;
#380 = ORIENTED_EDGE ( 'NONE', *, *, #919, .T. ) ;
#381 = ADVANCED_FACE ( 'NONE', ( #108 ), #185, .F. ) ;
#382 = CARTESIAN_POINT ( 'NONE',  ( -0.4430000000000001159, 0.7819999999999999174, -0.4329999999999999960 ) ) ;
#383 = VERTEX_POINT ( 'NONE', #329 ) ;
#384 = PLANE ( 'NONE',  #681 ) ;
#385 = ORIENTED_EDGE ( 'NONE', *, *, #129, .T. ) ;
#386 = ORIENTED_EDGE ( 'NONE', *, *, #774, .T. ) ;
#387 = AXIS2_PLACEMENT_3D ( 'NONE', #282, #780, #551 ) ;
#388 = DIRECTION ( 'NONE',  ( -5.551115123125592587E-15, 1.000000000000000000, 0.000000000000000000 ) ) ;
#389 = EDGE_CURVE ( 'NONE', #340, #595, #528, .T. ) ;
#390 = EDGE_LOOP ( 'NONE', ( #839, #88, #472, #30 ) ) ;
#391 = DIRECTION ( 'NONE',  ( -1.000000000000000000, -1.253073391224781742E-16, 0.000000000000000000 ) ) ;
#392 = LINE ( 'NONE', #671, #653 ) ;
#393 = EDGE_CURVE ( 'NONE', #214, #696, #396, .T. ) ;
#394 = EDGE_CURVE ( 'NONE', #125, #767, #49, .T. ) ;
#395 = CARTESIAN_POINT ( 'NONE',  ( -0.4249999999999999889, 0.7569999999999997842, -0.4150000000000000355 ) ) ;
#396 = LINE ( 'NONE', #115, #885 ) ;
#397 = FACE_OUTER_BOUND ( 'NONE', #275, .T. ) ;
#398 = CYLINDRICAL_SURFACE ( 'NONE', #522, 0.01499999999999973577 ) ;
#399 = DIRECTION ( 'NONE',  ( -0.000000000000000000, -0.000000000000000000, -1.000000000000000000 ) ) ;
#400 = AXIS2_PLACEMENT_3D ( 'NONE', #618, #137, #847 ) ;
#401 = VERTEX_POINT ( 'NONE', #40 ) ;
#402 = ADVANCED_FACE ( 'NONE', ( #678 ), #335, .F. ) ;
#403 = DIRECTION ( 'NONE',  ( -0.000000000000000000, -0.000000000000000000, -1.000000000000000000 ) ) ;
#404 = DIRECTION ( 'NONE',  ( 1.000000000000000000, 0.000000000000000000, 0.000000000000000000 ) ) ;
#405 = CIRCLE ( 'NONE', #563, 0.08999999999999998279 ) ;
#406 = EDGE_LOOP ( 'NONE', ( #475, #616, #411, #268 ) ) ;
#407 = CIRCLE ( 'NONE', #916, 0.08999999999999998279 ) ;
#408 = ORIENTED_EDGE ( 'NONE', *, *, #520, .F. ) ;
#409 = PERSON_AND_ORGANIZATION_ROLE ( 'design_owner' ) ;
#410 = CARTESIAN_POINT ( 'NONE',  ( 0.2849999999999999756, 0.7000000000000000666, -0.1450000000000002953 ) ) ;
#411 = ORIENTED_EDGE ( 'NONE', *, *, #648, .T. ) ;
#412 = ORIENTED_EDGE ( 'NONE', *, *, #326, .F. ) ;
#413 = APPLICATION_PROTOCOL_DEFINITION ( 'international standard', 'config_control_design', 1994, #422 ) ;
#414 = DIRECTION ( 'NONE',  ( -1.000000000000000000, -0.000000000000000000, -0.000000000000000000 ) ) ;
#415 = AXIS2_PLACEMENT_3D ( 'NONE', #899, #684, #110 ) ;
#416 = ORIENTED_EDGE ( 'NONE', *, *, #743, .F. ) ;
#417 = EDGE_CURVE ( 'NONE', #130, #703, #37, .T. ) ;
#418 = ORIENTED_EDGE ( 'NONE', *, *, #701, .F. ) ;
#419 = CARTESIAN_POINT ( 'NONE',  ( -0.4430000000000001159, 0.7819999999999999174, -0.4329999999999999960 ) ) ;
#420 = CARTESIAN_POINT ( 'NONE',  ( 0.4249999999999999889, 0.006999999999999895195, 0.4150000000000001465 ) ) ;
#421 = CARTESIAN_POINT ( 'NONE',  ( -1.387778780781445676E-17, 0.1395803989154980607, 0.4150000000000001465 ) ) ;
#422 = APPLICATION_CONTEXT ( 'configuration controlled 3d designs of mechanical parts and assemblies' ) ;
#423 = EDGE_CURVE ( 'NONE', #510, #218, #524, .T. ) ;
#424 = VERTEX_POINT ( 'NONE', #819 ) ;
#425 = CARTESIAN_POINT ( 'NONE',  ( 0.2849999999999995870, 0.7399999999999999911, -0.4150000000000000355 ) ) ;
#426 = DIRECTION ( 'NONE',  ( 1.000000000000000000, 0.000000000000000000, 0.000000000000000000 ) ) ;
#427 = ORIENTED_EDGE ( 'NONE', *, *, #186, .T. ) ;
#428 = DIRECTION ( 'NONE',  ( -0.000000000000000000, -0.000000000000000000, -1.000000000000000000 ) ) ;
#429 = DIRECTION ( 'NONE',  ( 0.000000000000000000, 0.000000000000000000, 1.000000000000000000 ) ) ;
#430 = CARTESIAN_POINT ( 'NONE',  ( 0.1600000000000000311, 0.1100000000000000144, 0.3650000000000001577 ) ) ;
#431 = AXIS2_PLACEMENT_3D ( 'NONE', #434, #369, #65 ) ;
#432 = ORIENTED_EDGE ( 'NONE', *, *, #578, .T. ) ;
#433 = PERSON_AND_ORGANIZATION ( #25, #756 ) ;
#434 = CARTESIAN_POINT ( 'NONE',  ( 0.2849999999999999756, 0.7149999999999997469, -0.4150000000000000355 ) ) ;
#435 = APPROVAL ( #232, 'UNSPECIFIED' ) ;
#436 = AXIS2_PLACEMENT_3D ( 'NONE', #303, #508, #27 ) ;
#437 = DIRECTION ( 'NONE',  ( 0.000000000000000000, 0.000000000000000000, 1.000000000000000000 ) ) ;
#438 = VERTEX_POINT ( 'NONE', #532 ) ;
#439 = CARTESIAN_POINT ( 'NONE',  ( -0.2849999999999996980, 0.7400000000000002132, -0.1450000000000002953 ) ) ;
#440 = COORDINATED_UNIVERSAL_TIME_OFFSET ( 4, 0, .AHEAD. ) ;
#441 = AXIS2_PLACEMENT_3D ( 'NONE', #856, #621, #497 ) ;
#442 = DIRECTION ( 'NONE',  ( 1.000000000000000000, 0.000000000000000000, -0.000000000000000000 ) ) ;
#443 = ORIENTED_EDGE ( 'NONE', *, *, #61, .T. ) ;
#444 = DATE_AND_TIME ( #796, #325 ) ;
#445 = PLANE ( 'NONE',  #882 ) ;
#446 = EDGE_CURVE ( 'NONE', #301, #688, #603, .T. ) ;
#447 = EDGE_CURVE ( 'NONE', #98, #438, #407, .T. ) ;
#448 = FACE_OUTER_BOUND ( 'NONE', #177, .T. ) ;
#449 = VECTOR ( 'NONE', #784, 1.000000000000000000 ) ;
#450 = VERTEX_POINT ( 'NONE', #895 ) ;
#451 = CARTESIAN_POINT ( 'NONE',  ( 0.000000000000000000, 0.000000000000000000, -0.4329999999999999960 ) ) ;
#452 = VECTOR ( 'NONE', #790, 1.000000000000000000 ) ;
#453 = EDGE_LOOP ( 'NONE', ( #386, #812, #57, #771 ) ) ;
#454 = PERSON_AND_ORGANIZATION_ROLE ( 'design_supplier' ) ;
#455 = LINE ( 'NONE', #580, #729 ) ;
#456 = DIRECTION ( 'NONE',  ( 0.000000000000000000, 0.000000000000000000, -1.000000000000000000 ) ) ;
#457 = ORIENTED_EDGE ( 'NONE', *, *, #394, .F. ) ;
#458 = LINE ( 'NONE', #14, #45 ) ;
#459 = VERTEX_POINT ( 'NONE', #763 ) ;
#460 = DIRECTION ( 'NONE',  ( -1.000000000000000000, 0.000000000000000000, 0.000000000000000000 ) ) ;
#461 = CARTESIAN_POINT ( 'NONE',  ( 0.2849999999999999756, 0.7149999999999997469, -0.4329999999999999960 ) ) ;
#462 = EDGE_CURVE ( 'NONE', #870, #855, #111, .T. ) ;
#463 = LINE ( 'NONE', #126, #28 ) ;
#464 = CARTESIAN_POINT ( 'NONE',  ( 0.2999999999999996558, 0.7249999999999999778, -0.1450000000000002953 ) ) ;
#465 = FACE_OUTER_BOUND ( 'NONE', #692, .T. ) ;
#466 = CARTESIAN_POINT ( 'NONE',  ( 0.4249999999999999889, 0.006999999999999895195, -0.4149999999999999800 ) ) ;
#467 = EDGE_CURVE ( 'NONE', #262, #317, #343, .T. ) ;
#468 = DIRECTION ( 'NONE',  ( -1.253073391224781742E-16, 1.000000000000000000, 0.000000000000000000 ) ) ;
#469 = FACE_OUTER_BOUND ( 'NONE', #231, .T. ) ;
#470 = DIRECTION ( 'NONE',  ( -0.000000000000000000, 1.480297366166875305E-16, 1.000000000000000000 ) ) ;
#471 = VECTOR ( 'NONE', #487, 1.000000000000000000 ) ;
#472 = ORIENTED_EDGE ( 'NONE', *, *, #417, .F. ) ;
#473 = PRODUCT_DEFINITION_FORMATION_WITH_SPECIFIED_SOURCE ( 'ANY', '', #879, .NOT_KNOWN. ) ;
#474 = CIRCLE ( 'NONE', #93, 0.01499999999999968026 ) ;
#475 = ORIENTED_EDGE ( 'NONE', *, *, #129, .F. ) ;
#476 = CARTESIAN_POINT ( 'NONE',  ( -0.2849999999999999756, 0.7149999999999997469, -0.1450000000000002953 ) ) ;
#477 = DIRECTION ( 'NONE',  ( 1.000000000000000000, 0.000000000000000000, 0.000000000000000000 ) ) ;
#478 = CARTESIAN_POINT ( 'NONE',  ( 0.1600000000000000311, 0.1100000000000000144, 0.4330000000000001625 ) ) ;
#479 = ORIENTED_EDGE ( 'NONE', *, *, #95, .T. ) ;
#480 = APPLICATION_CONTEXT ( 'configuration controlled 3d designs of mechanical parts and assemblies' ) ;
#481 = EDGE_LOOP ( 'NONE', ( #138, #572, #682, #263 ) ) ;
#482 = DIRECTION ( 'NONE',  ( 0.000000000000000000, 0.000000000000000000, 1.000000000000000000 ) ) ;
#483 = LINE ( 'NONE', #636, #751 ) ;
#484 = EDGE_CURVE ( 'NONE', #923, #286, #559, .T. ) ;
#485 = CARTESIAN_POINT ( 'NONE',  ( 0.000000000000000000, 0.08041960108450199596, 0.3650000000000001577 ) ) ;
#486 = EDGE_LOOP ( 'NONE', ( #538, #739, #416, #884, #408, #737, #727, #226 ) ) ;
#487 = DIRECTION ( 'NONE',  ( 0.000000000000000000, -1.000000000000000000, 0.000000000000000000 ) ) ;
#488 = CIRCLE ( 'NONE', #600, 0.01500000000000012434 ) ;
#489 = ADVANCED_FACE ( 'NONE', ( #144 ), #74, .F. ) ;
#490 = DIRECTION ( 'NONE',  ( -1.000000000000000000, 0.000000000000000000, 0.000000000000000000 ) ) ;
#491 = ORIENTED_EDGE ( 'NONE', *, *, #417, .T. ) ;
#492 = CIRCLE ( 'NONE', #540, 0.08999999999999999667 ) ;
#493 = CARTESIAN_POINT ( 'NONE',  ( -0.2999999999999997113, 0.7149999999999997469, -0.1450000000000002953 ) ) ;
#494 = DIRECTION ( 'NONE',  ( -0.000000000000000000, 0.000000000000000000, -1.000000000000000000 ) ) ;
#495 = ORIENTED_EDGE ( 'NONE', *, *, #181, .F. ) ;
#496 = COORDINATED_UNIVERSAL_TIME_OFFSET ( 4, 0, .AHEAD. ) ;
#497 = DIRECTION ( 'NONE',  ( 0.000000000000000000, 1.337618101958019798E-16, 1.000000000000000000 ) ) ;
#498 = FACE_OUTER_BOUND ( 'NONE', #918, .T. ) ;
#499 = ORIENTED_EDGE ( 'NONE', *, *, #617, .F. ) ;
#500 = FACE_OUTER_BOUND ( 'NONE', #304, .T. ) ;
#501 = LINE ( 'NONE', #788, #924 ) ;
#502 = LINE ( 'NONE', #60, #240 ) ;
#503 = VERTEX_POINT ( 'NONE', #920 ) ;
#504 = APPROVAL_ROLE ( '' ) ;
#505 = DIRECTION ( 'NONE',  ( -1.000000000000000000, 0.000000000000000000, 0.000000000000000000 ) ) ;
#506 = EDGE_LOOP ( 'NONE', ( #613, #639, #760, #647 ) ) ;
#507 = APPROVAL_DATE_TIME ( #89, #902 ) ;
#508 = DIRECTION ( 'NONE',  ( -0.000000000000000000, -0.000000000000000000, -1.000000000000000000 ) ) ;
#509 = EDGE_CURVE ( 'NONE', #286, #424, #207, .T. ) ;
#510 = VERTEX_POINT ( 'NONE', #278 ) ;
#511 = LINE ( 'NONE', #86, #316 ) ;
#512 = AXIS2_PLACEMENT_3D ( 'NONE', #640, #272, #769 ) ;
#513 = EDGE_LOOP ( 'NONE', ( #199, #321 ) ) ;
#514 = APPROVAL_ROLE ( '' ) ;
#515 = DIRECTION ( 'NONE',  ( -1.000000000000000000, -1.253073391224781495E-16, 0.000000000000000000 ) ) ;
#516 = CIRCLE ( 'NONE', #712, 0.07500000000000002498 ) ;
#517 = ORIENTED_EDGE ( 'NONE', *, *, #159, .T. ) ;
#518 = FACE_OUTER_BOUND ( 'NONE', #612, .T. ) ;
#519 = ORIENTED_EDGE ( 'NONE', *, *, #356, .T. ) ;
#520 = EDGE_CURVE ( 'NONE', #767, #842, #73, .T. ) ;
#521 = LINE ( 'NONE', #815, #90 ) ;
#522 = AXIS2_PLACEMENT_3D ( 'NONE', #476, #891, #460 ) ;
#523 = DIRECTION ( 'NONE',  ( 0.000000000000000000, -0.000000000000000000, 1.000000000000000000 ) ) ;
#524 = LINE ( 'NONE', #260, #82 ) ;
#525 = DIRECTION ( 'NONE',  ( 0.000000000000000000, 0.000000000000000000, -1.000000000000000000 ) ) ;
#526 = EDGE_CURVE ( 'NONE', #459, #842, #548, .T. ) ;
#527 = CARTESIAN_POINT ( 'NONE',  ( 0.000000000000000000, 0.1100000000000000561, 0.3650000000000001577 ) ) ;
#528 = LINE ( 'NONE', #466, #368 ) ;
#529 = DIRECTION ( 'NONE',  ( -1.000000000000000000, 0.000000000000000000, 0.000000000000000000 ) ) ;
#530 = CC_DESIGN_PERSON_AND_ORGANIZATION_ASSIGNMENT ( #99, #13, ( #11 ) ) ;
#531 = CARTESIAN_POINT ( 'NONE',  ( -0.2849999999999996980, 0.7400000000000002132, -0.4150000000000000355 ) ) ;
#532 = CARTESIAN_POINT ( 'NONE',  ( 0.1749999999999999889, 0.1100000000000000561, 0.4150000000000001465 ) ) ;
#533 = ORIENTED_EDGE ( 'NONE', *, *, #648, .F. ) ;
#534 = ORIENTED_EDGE ( 'NONE', *, *, #690, .F. ) ;
#535 = CYLINDRICAL_SURFACE ( 'NONE', #849, 0.01500000000000001332 ) ;
#536 = CARTESIAN_POINT ( 'NONE',  ( -0.08500000000000000611, 0.1100000000000000006, 0.4330000000000001625 ) ) ;
#537 = AXIS2_PLACEMENT_3D ( 'NONE', #915, #629, #358 ) ;
#538 = ORIENTED_EDGE ( 'NONE', *, *, #579, .F. ) ;
#539 = DIRECTION ( 'NONE',  ( -1.000000000000000000, 0.000000000000000000, 0.000000000000000000 ) ) ;
#540 = AXIS2_PLACEMENT_3D ( 'NONE', #212, #494, #426 ) ;
#541 = VERTEX_POINT ( 'NONE', #425 ) ;
#542 = EDGE_CURVE ( 'NONE', #345, #218, #331, .T. ) ;
#543 = DIRECTION ( 'NONE',  ( -0.000000000000000000, -0.000000000000000000, -1.000000000000000000 ) ) ;
#544 = ORIENTED_EDGE ( 'NONE', *, *, #113, .F. ) ;
#545 = ORIENTED_EDGE ( 'NONE', *, *, #509, .T. ) ;
#546 = EDGE_CURVE ( 'NONE', #298, #510, #285, .T. ) ;
#547 = CYLINDRICAL_SURFACE ( 'NONE', #77, 0.08999999999999998279 ) ;
#548 = LINE ( 'NONE', #493, #830 ) ;
#549 = DIRECTION ( 'NONE',  ( -1.000000000000000000, 0.000000000000000000, 0.000000000000000000 ) ) ;
#550 = ORIENTED_EDGE ( 'NONE', *, *, #520, .T. ) ;
#551 = DIRECTION ( 'NONE',  ( -1.000000000000000000, 0.000000000000000000, 0.000000000000000000 ) ) ;
#552 = VECTOR ( 'NONE', #894, 1.000000000000000000 ) ;
#553 = ORIENTED_EDGE ( 'NONE', *, *, #92, .T. ) ;
#554 = CC_DESIGN_APPROVAL ( #902, ( #473 ) ) ;
#555 = EDGE_CURVE ( 'NONE', #503, #767, #2, .T. ) ;
#556 = ORIENTED_EDGE ( 'NONE', *, *, #484, .T. ) ;
#557 = AXIS2_PLACEMENT_3D ( 'NONE', #261, #470, #764 ) ;
#558 = DIRECTION ( 'NONE',  ( 0.000000000000000000, 0.000000000000000000, 1.000000000000000000 ) ) ;
#559 = LINE ( 'NONE', #216, #840 ) ;
#560 = CARTESIAN_POINT ( 'NONE',  ( 0.4249999999999999889, 0.7569999999999998952, 0.4150000000000000355 ) ) ;
#561 = VECTOR ( 'NONE', #490, 1.000000000000000000 ) ;
#562 = PRODUCT_RELATED_PRODUCT_CATEGORY ( 'detail', '', ( #879 ) ) ;
#563 = AXIS2_PLACEMENT_3D ( 'NONE', #109, #755, #404 ) ;
#564 = ORIENTED_EDGE ( 'NONE', *, *, #224, .F. ) ;
#565 = DIRECTION ( 'NONE',  ( 1.000000000000000000, 0.000000000000000000, 0.000000000000000000 ) ) ;
#566 = CARTESIAN_POINT ( 'NONE',  ( -0.009999999999999981126, 0.1100000000000000144, 0.3650000000000001577 ) ) ;
#567 = LINE ( 'NONE', #646, #835 ) ;
#568 = ORIENTED_EDGE ( 'NONE', *, *, #484, .F. ) ;
#569 = CARTESIAN_POINT ( 'NONE',  ( 0.4249999999999999889, 0.006999999999999895195, -0.4149999999999999800 ) ) ;
#570 = PERSON_AND_ORGANIZATION ( #25, #756 ) ;
#571 = CARTESIAN_POINT ( 'NONE',  ( -0.4249999999999999889, 0.006999999999999895195, -0.4149999999999999800 ) ) ;
#572 = ORIENTED_EDGE ( 'NONE', *, *, #467, .F. ) ;
#573 = COORDINATED_UNIVERSAL_TIME_OFFSET ( 4, 0, .AHEAD. ) ;
#574 = EDGE_CURVE ( 'NONE', #923, #786, #698, .T. ) ;
#575 = LINE ( 'NONE', #314, #758 ) ;
#576 = ORIENTED_EDGE ( 'NONE', *, *, #183, .T. ) ;
#577 = AXIS2_PLACEMENT_3D ( 'NONE', #685, #188, #892 ) ;
#578 = EDGE_CURVE ( 'NONE', #401, #627, #166, .T. ) ;
#579 = EDGE_CURVE ( 'NONE', #284, #703, #801, .T. ) ;
#580 = CARTESIAN_POINT ( 'NONE',  ( 0.4249999999999999889, 0.7399999999999999911, -0.4150000000000000355 ) ) ;
#581 = CARTESIAN_POINT ( 'NONE',  ( 0.2999999999999996558, 0.7249999999999999778, -0.4329999999999999960 ) ) ;
#582 = VERTEX_POINT ( 'NONE', #149 ) ;
#583 = DIRECTION ( 'NONE',  ( -0.000000000000000000, -0.000000000000000000, -1.000000000000000000 ) ) ;
#584 = AXIS2_PLACEMENT_3D ( 'NONE', #860, #543, #289 ) ;
#585 = ORIENTED_EDGE ( 'NONE', *, *, #34, .T. ) ;
#586 = CIRCLE ( 'NONE', #853, 0.01499999999999968026 ) ;
#587 = FACE_OUTER_BOUND ( 'NONE', #51, .T. ) ;
#588 = VECTOR ( 'NONE', #97, 1.000000000000000000 ) ;
#589 = CC_DESIGN_DATE_AND_TIME_ASSIGNMENT ( #223, #378, ( #288 ) ) ;
#590 = FACE_OUTER_BOUND ( 'NONE', #341, .T. ) ;
#591 = ORIENTED_EDGE ( 'NONE', *, *, #820, .T. ) ;
#592 = VECTOR ( 'NONE', #597, 1.000000000000000000 ) ;
#593 = DIRECTION ( 'NONE',  ( -1.000000000000000000, 0.000000000000000000, 0.000000000000000000 ) ) ;
#594 = CYLINDRICAL_SURFACE ( 'NONE', #668, 0.08999999999999999667 ) ;
#595 = VERTEX_POINT ( 'NONE', #420 ) ;
#596 = FACE_OUTER_BOUND ( 'NONE', #453, .T. ) ;
#597 = DIRECTION ( 'NONE',  ( -0.000000000000000000, -0.000000000000000000, -1.000000000000000000 ) ) ;
#598 = LINE ( 'NONE', #742, #171 ) ;
#599 = EDGE_CURVE ( 'NONE', #863, #284, #702, .T. ) ;
#600 = AXIS2_PLACEMENT_3D ( 'NONE', #39, #43, #187 ) ;
#601 = CC_DESIGN_DATE_AND_TIME_ASSIGNMENT ( #650, #236, ( #11 ) ) ;
#602 = CARTESIAN_POINT ( 'NONE',  ( -0.2999999999999997113, 0.7149999999999997469, -0.4329999999999999960 ) ) ;
#603 = LINE ( 'NONE', #833, #200 ) ;
#604 = LINE ( 'NONE', #749, #253 ) ;
#605 = FACE_OUTER_BOUND ( 'NONE', #15, .T. ) ;
#606 = DIRECTION ( 'NONE',  ( -0.000000000000000000, -0.000000000000000000, -1.000000000000000000 ) ) ;
#607 = CARTESIAN_POINT ( 'NONE',  ( -0.4430000000000000049, -0.01799999999999999864, -0.4329999999999999960 ) ) ;
#608 = ORIENTED_EDGE ( 'NONE', *, *, #546, .F. ) ;
#609 = LINE ( 'NONE', #255, #136 ) ;
#610 = CARTESIAN_POINT ( 'NONE',  ( -0.08500000000000000611, 0.1100000000000000006, 0.3650000000000001577 ) ) ;
#611 = CARTESIAN_POINT ( 'NONE',  ( -0.4249999999999999889, 0.7569999999999998952, 0.4150000000000000355 ) ) ;
#612 = EDGE_LOOP ( 'NONE', ( #576, #791, #193, #585 ) ) ;
#613 = ORIENTED_EDGE ( 'NONE', *, *, #617, .T. ) ;
#614 =( NAMED_UNIT ( * ) SI_UNIT ( $, .STERADIAN. ) SOLID_ANGLE_UNIT ( ) );
#615 = DIRECTION ( 'NONE',  ( -0.000000000000000000, -0.000000000000000000, -1.000000000000000000 ) ) ;
#616 = ORIENTED_EDGE ( 'NONE', *, *, #509, .F. ) ;
#617 = EDGE_CURVE ( 'NONE', #317, #855, #483, .T. ) ;
#618 = CARTESIAN_POINT ( 'NONE',  ( -0.2849999999999996980, 0.7250000000000000888, -0.4329999999999999960 ) ) ;
#619 = ORIENTED_EDGE ( 'NONE', *, *, #845, .T. ) ;
#620 = FACE_OUTER_BOUND ( 'NONE', #652, .T. ) ;
#621 = DIRECTION ( 'NONE',  ( 0.000000000000000000, 1.000000000000000000, -1.337618101958019798E-16 ) ) ;
#622 = ORIENTED_EDGE ( 'NONE', *, *, #257, .T. ) ;
#623 = EDGE_LOOP ( 'NONE', ( #270, #94, #556, #545 ) ) ;
#624 =( NAMED_UNIT ( * ) PLANE_ANGLE_UNIT ( ) SI_UNIT ( $, .RADIAN. ) );
#625 = DIRECTION ( 'NONE',  ( 0.000000000000000000, -1.337618101958019798E-16, -1.000000000000000000 ) ) ;
#626 = CARTESIAN_POINT ( 'NONE',  ( -1.387778780781445676E-17, 0.1395803989154980607, 0.3650000000000001577 ) ) ;
#627 = VERTEX_POINT ( 'NONE', #566 ) ;
#628 = DIRECTION ( 'NONE',  ( 0.000000000000000000, -7.401486830834378990E-17, -1.000000000000000000 ) ) ;
#629 = DIRECTION ( 'NONE',  ( 0.000000000000000000, 0.000000000000000000, -1.000000000000000000 ) ) ;
#630 = CC_DESIGN_PERSON_AND_ORGANIZATION_ASSIGNMENT ( #871, #454, ( #473 ) ) ;
#631 = VECTOR ( 'NONE', #655, 1.000000000000000000 ) ;
#632 = CARTESIAN_POINT ( 'NONE',  ( 0.08500000000000000611, 0.1100000000000000006, 0.3650000000000001577 ) ) ;
#633 = ORIENTED_EDGE ( 'NONE', *, *, #17, .F. ) ;
#634 = AXIS2_PLACEMENT_3D ( 'NONE', #308, #583, #505 ) ;
#635 = DIRECTION ( 'NONE',  ( 1.000000000000000000, 0.000000000000000000, 0.000000000000000000 ) ) ;
#636 = CARTESIAN_POINT ( 'NONE',  ( -0.4249999999999999889, 0.7569999999999998952, 0.4150000000000000355 ) ) ;
#637 = DIRECTION ( 'NONE',  ( -0.000000000000000000, -0.000000000000000000, -1.000000000000000000 ) ) ;
#638 = AXIS2_PLACEMENT_3D ( 'NONE', #732, #375, #16 ) ;
#639 = ORIENTED_EDGE ( 'NONE', *, *, #462, .F. ) ;
#640 = CARTESIAN_POINT ( 'NONE',  ( -0.08500000000000000611, 0.1100000000000000561, 0.4150000000000001465 ) ) ;
#641 = EDGE_LOOP ( 'NONE', ( #517, #785, #917, #350, #661, #155, #781, #591 ) ) ;
#642 = EDGE_CURVE ( 'NONE', #703, #656, #844, .T. ) ;
#643 = CYLINDRICAL_SURFACE ( 'NONE', #313, 0.07500000000000002498 ) ;
#644 = ORIENTED_EDGE ( 'NONE', *, *, #423, .T. ) ;
#645 = CALENDAR_DATE ( 2026, 14, 7 ) ;
#646 = CARTESIAN_POINT ( 'NONE',  ( -0.2999999999999997113, 0.7149999999999997469, -0.4329999999999999960 ) ) ;
#647 = ORIENTED_EDGE ( 'NONE', *, *, #467, .T. ) ;
#648 = EDGE_CURVE ( 'NONE', #286, #344, #501, .T. ) ;
#649 = EDGE_CURVE ( 'NONE', #145, #722, #237, .T. ) ;
#650 = DATE_AND_TIME ( #23, #710 ) ;
#651 = CARTESIAN_POINT ( 'NONE',  ( 0.4249999999999999889, 0.000000000000000000, 0.000000000000000000 ) ) ;
#652 = EDGE_LOOP ( 'NONE', ( #828, #889, #63, #52 ) ) ;
#653 = VECTOR ( 'NONE', #38, 1.000000000000000000 ) ;
#654 = FACE_OUTER_BOUND ( 'NONE', #406, .T. ) ;
#655 = DIRECTION ( 'NONE',  ( 0.000000000000000000, -1.000000000000000000, 7.401486830834378990E-17 ) ) ;
#656 = VERTEX_POINT ( 'NONE', #80 ) ;
#657 = CARTESIAN_POINT ( 'NONE',  ( -0.2999999999999997669, 0.7250000000000000888, -0.4329999999999999960 ) ) ;
#658 = APPROVAL ( #215, 'UNSPECIFIED' ) ;
#659 = DIRECTION ( 'NONE',  ( 0.000000000000000000, 1.000000000000000000, 0.000000000000000000 ) ) ;
#660 = AXIS2_PLACEMENT_3D ( 'NONE', #114, #184, #246 ) ;
#661 = ORIENTED_EDGE ( 'NONE', *, *, #113, .T. ) ;
#662 = LINE ( 'NONE', #666, #707 ) ;
#663 = ORIENTED_EDGE ( 'NONE', *, *, #721, .F. ) ;
#664 = FACE_OUTER_BOUND ( 'NONE', #390, .T. ) ;
#665 = AXIS2_PLACEMENT_3D ( 'NONE', #244, #104, #379 ) ;
#666 = CARTESIAN_POINT ( 'NONE',  ( 0.4249999999999999889, 0.006999999999999895195, -0.4149999999999999800 ) ) ;
#667 = ORIENTED_EDGE ( 'NONE', *, *, #875, .T. ) ;
#668 = AXIS2_PLACEMENT_3D ( 'NONE', #888, #267, #247 ) ;
#669 = FACE_BOUND ( 'NONE', #513, .T. ) ;
#670 = PLANE ( 'NONE',  #173 ) ;
#671 = CARTESIAN_POINT ( 'NONE',  ( 0.4249999999999999889, 0.006999999999999895195, 0.4150000000000001465 ) ) ;
#672 = CC_DESIGN_PERSON_AND_ORGANIZATION_ASSIGNMENT ( #68, #409, ( #879 ) ) ;
#673 = DIRECTION ( 'NONE',  ( 5.551115123125592587E-15, -1.000000000000000000, 0.000000000000000000 ) ) ;
#674 = DIRECTION ( 'NONE',  ( -1.000000000000000000, 0.000000000000000000, 0.000000000000000000 ) ) ;
#675 = PLANE ( 'NONE',  #46 ) ;
#676 = VECTOR ( 'NONE', #429, 1.000000000000000000 ) ;
#677 = PLANE ( 'NONE',  #252 ) ;
#678 = FACE_OUTER_BOUND ( 'NONE', #67, .T. ) ;
#679 = CARTESIAN_POINT ( 'NONE',  ( 0.4249999999999999889, 0.7569999999999998952, 0.4150000000000000355 ) ) ;
#680 = CIRCLE ( 'NONE', #194, 0.07500000000000002498 ) ;
#681 = AXIS2_PLACEMENT_3D ( 'NONE', #382, #158, #229 ) ;
#682 = ORIENTED_EDGE ( 'NONE', *, *, #768, .F. ) ;
#683 = CIRCLE ( 'NONE', #154, 0.08999999999999998279 ) ;
#684 = DIRECTION ( 'NONE',  ( 0.000000000000000000, -7.401486830834378990E-17, -1.000000000000000000 ) ) ;
#685 = CARTESIAN_POINT ( 'NONE',  ( -0.2849999999999996980, 0.7250000000000000888, -0.1450000000000002953 ) ) ;
#686 = FACE_BOUND ( 'NONE', #241, .T. ) ;
#687 = EDGE_LOOP ( 'NONE', ( #906, #205, #778, #867 ) ) ;
#688 = VERTEX_POINT ( 'NONE', #714 ) ;
#689 = DIRECTION ( 'NONE',  ( -1.000000000000000000, -0.000000000000000000, -0.000000000000000000 ) ) ;
#690 = EDGE_CURVE ( 'NONE', #12, #98, #116, .T. ) ;
#691 = ORIENTED_EDGE ( 'NONE', *, *, #462, .T. ) ;
#692 = EDGE_LOOP ( 'NONE', ( #31, #191, #912 ) ) ;
#693 = DIRECTION ( 'NONE',  ( -1.000000000000000000, 0.000000000000000000, 0.000000000000000000 ) ) ;
#694 = DIRECTION ( 'NONE',  ( -0.000000000000000000, -0.000000000000000000, -1.000000000000000000 ) ) ;
#695 = CARTESIAN_POINT ( 'NONE',  ( 0.08500000000000000611, 0.1100000000000000561, 0.3650000000000001577 ) ) ;
#696 = VERTEX_POINT ( 'NONE', #133 ) ;
#697 = CARTESIAN_POINT ( 'NONE',  ( 0.000000000000000000, 0.000000000000000000, 0.000000000000000000 ) ) ;
#698 = LINE ( 'NONE', #838, #676 ) ;
#699 = CARTESIAN_POINT ( 'NONE',  ( -0.4430000000000000049, -0.01799999999999999864, 0.4329999999999999960 ) ) ;
#700 = ORIENTED_EDGE ( 'NONE', *, *, #526, .F. ) ;
#701 = EDGE_CURVE ( 'NONE', #130, #145, #798, .T. ) ;
#702 = LINE ( 'NONE', #140, #789 ) ;
#703 = VERTEX_POINT ( 'NONE', #581 ) ;
#704 = ORIENTED_EDGE ( 'NONE', *, *, #542, .F. ) ;
#705 = FACE_OUTER_BOUND ( 'NONE', #18, .T. ) ;
#706 = DIRECTION ( 'NONE',  ( 1.000000000000000000, -3.895519384649676786E-16, 0.000000000000000000 ) ) ;
#707 = VECTOR ( 'NONE', #740, 1.000000000000000000 ) ;
#708 = LINE ( 'NONE', #76, #365 ) ;
#709 = VECTOR ( 'NONE', #364, 1.000000000000000000 ) ;
#710 = LOCAL_TIME ( 20, 0, 12.00000000000000000, #85 ) ;
#711 = ORIENTED_EDGE ( 'NONE', *, *, #845, .F. ) ;
#712 = AXIS2_PLACEMENT_3D ( 'NONE', #135, #279, #549 ) ;
#713 = COORDINATED_UNIVERSAL_TIME_OFFSET ( 4, 0, .AHEAD. ) ;
#714 = CARTESIAN_POINT ( 'NONE',  ( 0.4430000000000000049, 0.7820000000000000284, 0.4329999999999999960 ) ) ;
#715 = DIRECTION ( 'NONE',  ( 1.000000000000000000, 0.000000000000000000, 0.000000000000000000 ) ) ;
#716 = ADVANCED_FACE ( 'NONE', ( #448 ), #234, .T. ) ;
#717 = ORIENTED_EDGE ( 'NONE', *, *, #202, .T. ) ;
#718 = VECTOR ( 'NONE', #689, 1.000000000000000000 ) ;
#719 = APPROVAL_DATE_TIME ( #96, #658 ) ;
#720 = CARTESIAN_POINT ( 'NONE',  ( -0.009999999999999995004, 0.1100000000000000144, 0.4330000000000001625 ) ) ;
#721 = EDGE_CURVE ( 'NONE', #911, #688, #726, .T. ) ;
#722 = VERTEX_POINT ( 'NONE', #29 ) ;
#723 = CALENDAR_DATE ( 2026, 14, 7 ) ;
#724 = DIRECTION ( 'NONE',  ( 0.000000000000000000, 1.000000000000000000, 0.000000000000000000 ) ) ;
#725 = AXIS2_PLACEMENT_3D ( 'NONE', #527, #523, #904 ) ;
#726 = LINE ( 'NONE', #102, #877 ) ;
#727 = ORIENTED_EDGE ( 'NONE', *, *, #283, .F. ) ;
#728 = APPROVAL_PERSON_ORGANIZATION ( #433, #902, #514 ) ;
#729 = VECTOR ( 'NONE', #167, 1.000000000000000000 ) ;
#730 = DESIGN_CONTEXT ( 'detailed design', #480, 'design' ) ;
#731 = ADVANCED_FACE ( 'NONE', ( #590 ), #643, .F. ) ;
#732 = CARTESIAN_POINT ( 'NONE',  ( -0.4430000000000000049, -0.01799999999999999864, -0.4329999999999999960 ) ) ;
#733 = ORIENTED_EDGE ( 'NONE', *, *, #56, .F. ) ;
#734 = CC_DESIGN_PERSON_AND_ORGANIZATION_ASSIGNMENT ( #570, #865, ( #288 ) ) ;
#735 = FACE_OUTER_BOUND ( 'NONE', #165, .T. ) ;
#736 = EDGE_LOOP ( 'NONE', ( #292, #495, #533, #568 ) ) ;
#737 = ORIENTED_EDGE ( 'NONE', *, *, #555, .F. ) ;
#738 = DIRECTION ( 'NONE',  ( 0.000000000000000000, 1.000000000000000000, -1.480297366166875305E-16 ) ) ;
#739 = ORIENTED_EDGE ( 'NONE', *, *, #599, .F. ) ;
#740 = DIRECTION ( 'NONE',  ( -1.000000000000000000, -0.000000000000000000, -0.000000000000000000 ) ) ;
#741 = DIRECTION ( 'NONE',  ( 0.000000000000000000, -1.000000000000000000, 7.401486830834377758E-17 ) ) ;
#742 = CARTESIAN_POINT ( 'NONE',  ( -0.4430000000000001159, 0.7819999999999999174, 0.4329999999999999960 ) ) ;
#743 = EDGE_CURVE ( 'NONE', #170, #863, #817, .T. ) ;
#744 = PLANE ( 'NONE',  #415 ) ;
#745 = CARTESIAN_POINT ( 'NONE',  ( 0.08500000000000000611, 0.1100000000000000561, 0.4150000000000001465 ) ) ;
#746 = EDGE_CURVE ( 'NONE', #340, #214, #662, .T. ) ;
#747 = LINE ( 'NONE', #753, #376 ) ;
#748 = CARTESIAN_POINT ( 'NONE',  ( -0.4249999999999999889, 0.7569999999999997842, -0.4150000000000000355 ) ) ;
#749 = CARTESIAN_POINT ( 'NONE',  ( 0.4430000000000000049, 0.7820000000000000284, -0.4329999999999999960 ) ) ;
#750 = CARTESIAN_POINT ( 'NONE',  ( -0.08500000000000000611, 0.1100000000000000006, 0.3650000000000001577 ) ) ;
#751 = VECTOR ( 'NONE', #625, 1.000000000000000000 ) ;
#752 = ORIENTED_EDGE ( 'NONE', *, *, #393, .T. ) ;
#753 = CARTESIAN_POINT ( 'NONE',  ( 0.2999999999999996558, 0.7149999999999997469, -0.1450000000000002953 ) ) ;
#754 = DIRECTION ( 'NONE',  ( 0.000000000000000000, -1.000000000000000000, 0.000000000000000000 ) ) ;
#755 = DIRECTION ( 'NONE',  ( -0.000000000000000000, 0.000000000000000000, -1.000000000000000000 ) ) ;
#756 = ORGANIZATION ( 'UNSPECIFIED', 'UNSPECIFIED', '' ) ;
#757 = VERTEX_POINT ( 'NONE', #762 ) ;
#758 = VECTOR ( 'NONE', #868, 1.000000000000000000 ) ;
#759 = DIRECTION ( 'NONE',  ( -0.000000000000000000, -0.000000000000000000, -1.000000000000000000 ) ) ;
#760 = ORIENTED_EDGE ( 'NONE', *, *, #34, .F. ) ;
#761 = EDGE_CURVE ( 'NONE', #541, #284, #463, .T. ) ;
#762 = CARTESIAN_POINT ( 'NONE',  ( -0.1600000000000000311, 0.1100000000000000006, 0.4330000000000001625 ) ) ;
#763 = CARTESIAN_POINT ( 'NONE',  ( -0.2999999999999997113, 0.7149999999999997469, -0.4150000000000000355 ) ) ;
#764 = DIRECTION ( 'NONE',  ( 0.000000000000000000, -1.000000000000000000, 1.480297366166875305E-16 ) ) ;
#765 = CIRCLE ( 'NONE', #274, 0.07500000000000002498 ) ;
#766 = VERTEX_POINT ( 'NONE', #531 ) ;
#767 = VERTEX_POINT ( 'NONE', #318 ) ;
#768 = EDGE_CURVE ( 'NONE', #595, #262, #521, .T. ) ;
#769 = DIRECTION ( 'NONE',  ( 1.000000000000000000, 0.000000000000000000, 0.000000000000000000 ) ) ;
#770 = DIRECTION ( 'NONE',  ( -0.000000000000000000, -0.000000000000000000, 1.000000000000000000 ) ) ;
#771 = ORIENTED_EDGE ( 'NONE', *, *, #649, .F. ) ;
#772 = CIRCLE ( 'NONE', #893, 0.01500000000000001332 ) ;
#773 = DIRECTION ( 'NONE',  ( -1.000000000000000000, 0.000000000000000000, 0.000000000000000000 ) ) ;
#774 = EDGE_CURVE ( 'NONE', #145, #656, #747, .T. ) ;
#775 = CARTESIAN_POINT ( 'NONE',  ( -0.2849999999999999756, 0.7000000000000000666, -0.4150000000000000355 ) ) ;
#776 = ADVANCED_FACE ( 'NONE', ( #250, #669, #465 ), #36, .F. ) ;
#777 = VECTOR ( 'NONE', #857, 1.000000000000000000 ) ;
#778 = ORIENTED_EDGE ( 'NONE', *, *, #61, .F. ) ;
#779 = DIRECTION ( 'NONE',  ( 1.000000000000000000, 0.000000000000000000, 0.000000000000000000 ) ) ;
#780 = DIRECTION ( 'NONE',  ( -0.000000000000000000, -0.000000000000000000, -1.000000000000000000 ) ) ;
#781 = ORIENTED_EDGE ( 'NONE', *, *, #75, .T. ) ;
#782 = ORIENTED_EDGE ( 'NONE', *, *, #105, .F. ) ;
#783 = CARTESIAN_POINT ( 'NONE',  ( -0.2849999999999999756, 0.7149999999999997469, -0.4150000000000000355 ) ) ;
#784 = DIRECTION ( 'NONE',  ( -1.000000000000000000, 0.000000000000000000, 0.000000000000000000 ) ) ;
#785 = ORIENTED_EDGE ( 'NONE', *, *, #873, .T. ) ;
#786 = VERTEX_POINT ( 'NONE', #323 ) ;
#787 = CARTESIAN_POINT ( 'NONE',  ( 0.2849999999999995870, 0.7249999999999999778, -0.4150000000000000355 ) ) ;
#788 = CARTESIAN_POINT ( 'NONE',  ( -0.4430000000000000049, -0.01799999999999999864, -0.4329999999999999960 ) ) ;
#789 = VECTOR ( 'NONE', #706, 1.000000000000000000 ) ;
#790 = DIRECTION ( 'NONE',  ( -0.000000000000000000, -0.000000000000000000, -1.000000000000000000 ) ) ;
#791 = ORIENTED_EDGE ( 'NONE', *, *, #389, .T. ) ;
#792 = ADVANCED_FACE ( 'NONE', ( #596 ), #821, .F. ) ;
#793 = DIRECTION ( 'NONE',  ( 0.000000000000000000, -1.000000000000000000, 7.401486830834377758E-17 ) ) ;
#794 = VECTOR ( 'NONE', #741, 1.000000000000000000 ) ;
#795 = ORIENTED_EDGE ( 'NONE', *, *, #898, .F. ) ;
#796 = CALENDAR_DATE ( 2026, 14, 7 ) ;
#797 = DIRECTION ( 'NONE',  ( -0.000000000000000000, 0.000000000000000000, -1.000000000000000000 ) ) ;
#798 = LINE ( 'NONE', #164, #631 ) ;
#799 = ORIENTED_EDGE ( 'NONE', *, *, #105, .T. ) ;
#800 = DIRECTION ( 'NONE',  ( 0.000000000000000000, 0.000000000000000000, 1.000000000000000000 ) ) ;
#801 = CIRCLE ( 'NONE', #907, 0.01500000000000001332 ) ;
#802 = ADVANCED_FACE ( 'NONE', ( #107 ), #398, .F. ) ;
#803 = CARTESIAN_POINT ( 'NONE',  ( 0.4430000000000000049, -0.01799999999999999864, -0.4329999999999999960 ) ) ;
#804 = ORIENTED_EDGE ( 'NONE', *, *, #351, .F. ) ;
#805 = CC_DESIGN_APPROVAL ( #658, ( #11 ) ) ;
#806 = VECTOR ( 'NONE', #770, 1.000000000000000000 ) ;
#807 = CARTESIAN_POINT ( 'NONE',  ( 0.2999999999999996558, 0.7249999999999999778, -0.4150000000000000355 ) ) ;
#808 = ORIENTED_EDGE ( 'NONE', *, *, #423, .F. ) ;
#809 = VECTOR ( 'NONE', #399, 1.000000000000000000 ) ;
#810 = DIRECTION ( 'NONE',  ( 0.000000000000000000, 0.000000000000000000, 1.000000000000000000 ) ) ;
#811 = PRODUCT_DEFINITION_SHAPE ( 'NONE', 'NONE',  #11 ) ;
#812 = ORIENTED_EDGE ( 'NONE', *, *, #283, .T. ) ;
#813 = UNCERTAINTY_MEASURE_WITH_UNIT (LENGTH_MEASURE( 1.000000000000000082E-05 ), #206, 'distance_accuracy_value', 'NONE');
#814 = ADVANCED_FACE ( 'NONE', ( #605 ), #677, .F. ) ;
#815 = CARTESIAN_POINT ( 'NONE',  ( 0.4249999999999999889, 0.006999999999999895195, 0.4150000000000001465 ) ) ;
#816 = LINE ( 'NONE', #748, #794 ) ;
#817 = CIRCLE ( 'NONE', #400, 0.01500000000000012434 ) ;
#818 = DIRECTION ( 'NONE',  ( 0.000000000000000000, 1.000000000000000000, -1.480297366166875305E-16 ) ) ;
#819 = CARTESIAN_POINT ( 'NONE',  ( -0.4430000000000000049, -0.01799999999999999864, 0.4329999999999999960 ) ) ;
#820 = EDGE_CURVE ( 'NONE', #383, #766, #488, .T. ) ;
#821 = CYLINDRICAL_SURFACE ( 'NONE', #660, 0.01499999999999968026 ) ;
#822 = DIRECTION ( 'NONE',  ( -1.000000000000000000, 0.000000000000000000, 0.000000000000000000 ) ) ;
#823 = CARTESIAN_POINT ( 'NONE',  ( 0.4430000000000000049, 0.7820000000000000284, -0.4329999999999999960 ) ) ;
#824 = CC_DESIGN_SECURITY_CLASSIFICATION ( #288, ( #473 ) ) ;
#825 = FACE_OUTER_BOUND ( 'NONE', #47, .T. ) ;
#826 = LINE ( 'NONE', #120, #592 ) ;
#827 = DIRECTION ( 'NONE',  ( -1.000000000000000000, -1.253073391224781495E-16, 0.000000000000000000 ) ) ;
#828 = ORIENTED_EDGE ( 'NONE', *, *, #227, .F. ) ;
#829 = ADVANCED_FACE ( 'NONE', ( #334, #119 ), #744, .F. ) ;
#830 = VECTOR ( 'NONE', #694, 1.000000000000000000 ) ;
#831 = ORIENTED_EDGE ( 'NONE', *, *, #746, .F. ) ;
#832 = CARTESIAN_POINT ( 'NONE',  ( 0.2849999999999995870, 0.7249999999999999778, -0.1450000000000002953 ) ) ;
#833 = CARTESIAN_POINT ( 'NONE',  ( 0.4430000000000000049, 0.7820000000000000284, -0.4329999999999999960 ) ) ;
#834 = EDGE_LOOP ( 'NONE', ( #117, #201 ) ) ;
#835 = VECTOR ( 'NONE', #388, 1.000000000000000000 ) ;
#836 = ORIENTED_EDGE ( 'NONE', *, *, #447, .T. ) ;
#837 = CYLINDRICAL_SURFACE ( 'NONE', #4, 0.08999999999999998279 ) ;
#838 = CARTESIAN_POINT ( 'NONE',  ( -0.4430000000000001159, 0.7819999999999999174, -0.4329999999999999960 ) ) ;
#839 = ORIENTED_EDGE ( 'NONE', *, *, #761, .T. ) ;
#840 = VECTOR ( 'NONE', #347, 1.000000000000000000 ) ;
#841 = ADVANCED_FACE ( 'NONE', ( #825 ), #328, .T. ) ;
#842 = VERTEX_POINT ( 'NONE', #602 ) ;
#843 = LINE ( 'NONE', #287, #118 ) ;
#844 = LINE ( 'NONE', #69, #471 ) ;
#845 = EDGE_CURVE ( 'NONE', #3, #98, #259, .T. ) ;
#846 = LINE ( 'NONE', #208, #561 ) ;
#847 = DIRECTION ( 'NONE',  ( -1.000000000000000000, 0.000000000000000000, 0.000000000000000000 ) ) ;
#848 = ORIENTED_EDGE ( 'NONE', *, *, #526, .T. ) ;
#849 = AXIS2_PLACEMENT_3D ( 'NONE', #832, #33, #593 ) ;
#850 = PLANE ( 'NONE',  #41 ) ;
#851 = CARTESIAN_POINT ( 'NONE',  ( -0.08500000000000000611, 0.1100000000000000006, 0.3650000000000001577 ) ) ;
#852 = EDGE_LOOP ( 'NONE', ( #443, #153, #296, #881 ) ) ;
#853 = AXIS2_PLACEMENT_3D ( 'NONE', #783, #342, #143 ) ;
#854 = VECTOR ( 'NONE', #221, 1.000000000000000000 ) ;
#855 = VERTEX_POINT ( 'NONE', #395 ) ;
#856 = CARTESIAN_POINT ( 'NONE',  ( 0.4249999999999999889, 0.7569999999999998952, 0.4150000000000000355 ) ) ;
#857 = DIRECTION ( 'NONE',  ( 0.000000000000000000, -1.337618101958019798E-16, -1.000000000000000000 ) ) ;
#858 = EDGE_LOOP ( 'NONE', ( #367, #704 ) ) ;
#859 = DIRECTION ( 'NONE',  ( -1.000000000000000000, 0.000000000000000000, 0.000000000000000000 ) ) ;
#860 = CARTESIAN_POINT ( 'NONE',  ( 0.08500000000000000611, 0.1100000000000000006, 0.4330000000000001625 ) ) ;
#861 = LOCAL_TIME ( 20, 0, 12.00000000000000000, #440 ) ;
#862 = LINE ( 'NONE', #370, #854 ) ;
#863 = VERTEX_POINT ( 'NONE', #338 ) ;
#864 = EDGE_CURVE ( 'NONE', #383, #170, #609, .T. ) ;
#865 = PERSON_AND_ORGANIZATION_ROLE ( 'classification_officer' ) ;
#866 = CARTESIAN_POINT ( 'NONE',  ( 0.009999999999999981126, 0.1100000000000000006, 0.3650000000000001577 ) ) ;
#867 = ORIENTED_EDGE ( 'NONE', *, *, #820, .F. ) ;
#868 = DIRECTION ( 'NONE',  ( -0.000000000000000000, -0.000000000000000000, 1.000000000000000000 ) ) ;
#869 = ADVANCED_FACE ( 'NONE', ( #664 ), #535, .F. ) ;
#870 = VERTEX_POINT ( 'NONE', #64 ) ;
#871 = PERSON_AND_ORGANIZATION ( #25, #756 ) ;
#872 = PLANE ( 'NONE',  #78 ) ;
#873 = EDGE_CURVE ( 'NONE', #541, #130, #772, .T. ) ;
#874 = EDGE_LOOP ( 'NONE', ( #534, #131, #306 ) ) ;
#875 = EDGE_CURVE ( 'NONE', #757, #401, #277, .T. ) ;
#876 = PLANE ( 'NONE',  #638 ) ;
#877 = VECTOR ( 'NONE', #659, 1.000000000000000000 ) ;
#878 = ORIENTED_EDGE ( 'NONE', *, *, #371, .T. ) ;
#879 = PRODUCT ( 'Body', 'Body', '', ( #7 ) ) ;
#880 =( GEOMETRIC_REPRESENTATION_CONTEXT ( 3 ) GLOBAL_UNCERTAINTY_ASSIGNED_CONTEXT ( ( #813 ) ) GLOBAL_UNIT_ASSIGNED_CONTEXT ( ( #206, #624, #614 ) ) REPRESENTATION_CONTEXT ( 'NONE', 'WORKASPACE' ) );
#881 = ORIENTED_EDGE ( 'NONE', *, *, #159, .F. ) ;
#882 = AXIS2_PLACEMENT_3D ( 'NONE', #651, #21, #810 ) ;
#883 = PLANE ( 'NONE',  #665 ) ;
#884 = ORIENTED_EDGE ( 'NONE', *, *, #202, .F. ) ;
#885 = VECTOR ( 'NONE', #54, 1.000000000000000000 ) ;
#886 = ADVANCED_FACE ( 'NONE', ( #620 ), #547, .T. ) ;
#887 = DIRECTION ( 'NONE',  ( -0.000000000000000000, -0.000000000000000000, -1.000000000000000000 ) ) ;
#888 = CARTESIAN_POINT ( 'NONE',  ( -0.08500000000000000611, 0.1100000000000000561, 0.3650000000000001577 ) ) ;
#889 = ORIENTED_EDGE ( 'NONE', *, *, #224, .T. ) ;
#890 = ADVANCED_FACE ( 'NONE', ( #705 ), #837, .T. ) ;
#891 = DIRECTION ( 'NONE',  ( -0.000000000000000000, -0.000000000000000000, -1.000000000000000000 ) ) ;
#892 = DIRECTION ( 'NONE',  ( -1.000000000000000000, 0.000000000000000000, 0.000000000000000000 ) ) ;
#893 = AXIS2_PLACEMENT_3D ( 'NONE', #787, #628, #139 ) ;
#894 = DIRECTION ( 'NONE',  ( -0.000000000000000000, -0.000000000000000000, 1.000000000000000000 ) ) ;
#895 = CARTESIAN_POINT ( 'NONE',  ( 0.000000000000000000, 0.08041960108450199596, 0.3650000000000001577 ) ) ;
#896 = AXIS2_PLACEMENT_3D ( 'NONE', #189, #50, #336 ) ;
#897 = CARTESIAN_POINT ( 'NONE',  ( 0.000000000000000000, 0.000000000000000000, 0.4329999999999999960 ) ) ;
#898 = EDGE_CURVE ( 'NONE', #125, #459, #586, .T. ) ;
#899 = CARTESIAN_POINT ( 'NONE',  ( 0.4249999999999999889, 0.7569999999999997842, -0.4150000000000000355 ) ) ;
#900 = DIRECTION ( 'NONE',  ( -0.000000000000000000, -0.000000000000000000, -1.000000000000000000 ) ) ;
#901 = PLANE ( 'NONE',  #557 ) ;
#902 = APPROVAL ( #374, 'UNSPECIFIED' ) ;
#903 = ORIENTED_EDGE ( 'NONE', *, *, #913, .F. ) ;
#904 = DIRECTION ( 'NONE',  ( 1.000000000000000000, 0.000000000000000000, -0.000000000000000000 ) ) ;
#905 = FACE_OUTER_BOUND ( 'NONE', #372, .T. ) ;
#906 = ORIENTED_EDGE ( 'NONE', *, *, #864, .T. ) ;
#907 = AXIS2_PLACEMENT_3D ( 'NONE', #59, #203, #211 ) ;
#908 = ORIENTED_EDGE ( 'NONE', *, *, #356, .F. ) ;
#909 = CARTESIAN_POINT ( 'NONE',  ( 0.08500000000000000611, 0.1100000000000000561, 0.3650000000000001577 ) ) ;
#910 = CARTESIAN_POINT ( 'NONE',  ( 0.1600000000000000311, 0.1100000000000000144, 0.3650000000000001577 ) ) ;
#911 = VERTEX_POINT ( 'NONE', #58 ) ;
#912 = ORIENTED_EDGE ( 'NONE', *, *, #227, .T. ) ;
#913 = EDGE_CURVE ( 'NONE', #757, #160, #680, .T. ) ;
#914 = DIRECTION ( 'NONE',  ( -0.000000000000000000, -0.000000000000000000, 1.000000000000000000 ) ) ;
#915 = CARTESIAN_POINT ( 'NONE',  ( -0.2849999999999999756, 0.7149999999999997469, -0.4329999999999999960 ) ) ;
#916 = AXIS2_PLACEMENT_3D ( 'NONE', #745, #196, #477 ) ;
#917 = ORIENTED_EDGE ( 'NONE', *, *, #701, .T. ) ;
#918 = EDGE_LOOP ( 'NONE', ( #608, #22, #222, #808 ) ) ;
#919 = EDGE_CURVE ( 'NONE', #722, #503, #843, .T. ) ;
#920 = CARTESIAN_POINT ( 'NONE',  ( 0.2849999999999999756, 0.7000000000000000666, -0.4329999999999999960 ) ) ;
#921 = ADVANCED_FACE ( 'NONE', ( #500 ), #850, .F. ) ;
#922 = DIRECTION ( 'NONE',  ( -0.000000000000000000, -0.000000000000000000, -1.000000000000000000 ) ) ;
#923 = VERTEX_POINT ( 'NONE', #419 ) ;
#924 = VECTOR ( 'NONE', #152, 1.000000000000000000 ) ;
ENDSEC;
END-ISO-10303-21;
